<svg xmlns="http://www.w3.org/2000/svg" width="1200" height="800" viewBox="0 0 1200 800" role="img" aria-label="vbloge dashboard pattern">
  <defs>
    <linearGradient id="g" x1="0" x2="1" y1="0" y2="1">
      <stop offset="0" stop-color="#2563eb"/>
      <stop offset="1" stop-color="#0f766e"/>
    </linearGradient>
  </defs>
  <rect width="1200" height="800" fill="url(#g)"/>
  <g fill="none" stroke="#ffffff" stroke-opacity=".28" stroke-width="2">
    <rect x="82" y="96" width="280" height="172" rx="14"/>
    <rect x="420" y="72" width="360" height="96" rx="14"/>
    <rect x="840" y="112" width="250" height="252" rx="14"/>
    <rect x="132" y="348" width="330" height="250" rx="14"/>
    <rect x="540" y="274" width="232" height="212" rx="14"/>
    <rect x="832" y="472" width="286" height="154" rx="14"/>
  </g>
  <g fill="#ffffff" fill-opacity=".32">
    <circle cx="170" cy="154" r="24"/>
    <circle cx="220" cy="154" r="24"/>
    <circle cx="270" cy="154" r="24"/>
    <rect x="460" y="112" width="220" height="18" rx="9"/>
    <rect x="880" y="162" width="150" height="18" rx="9"/>
    <rect x="880" y="206" width="110" height="18" rx="9"/>
    <rect x="174" y="414" width="210" height="18" rx="9"/>
    <rect x="174" y="464" width="154" height="18" rx="9"/>
    <rect x="580" y="334" width="138" height="18" rx="9"/>
    <rect x="872" y="528" width="182" height="18" rx="9"/>
  </g>
</svg>
